<svg version="1.1" id="Layer_1" xmlns="http://www.w3.org/2000/svg" xmlns:xlink="http://www.w3.org/1999/xlink" x="0px" y="0px"
	 width="100%" viewBox="0 0 1018 186" enable-background="new 0 0 1018 186" xml:space="preserve">
<path fill="#71C292" opacity="1.000000" stroke="none" 
	d="
M581.749512,1.275211 
	C660.354248,1.000000 738.708435,1.000000 817.531372,1.000000 
	C821.249084,2.275419 821.837097,5.783150 823.901001,8.004075 
	C828.762512,13.235358 834.793518,17.256035 839.514038,22.665573 
	C839.731934,22.915298 840.050415,23.258669 840.316223,23.224937 
	C848.894592,22.136297 850.308838,30.308922 854.691772,34.533932 
	C856.629089,36.401413 858.076538,37.808651 861.023926,37.274738 
	C863.915405,36.750957 866.419678,38.032837 867.254944,41.024330 
	C868.665955,46.077911 874.182434,46.748108 876.962402,50.426559 
	C878.030273,51.839592 880.688660,50.346855 882.607300,49.807907 
	C886.781677,48.635338 889.113159,50.673103 888.341614,54.963570 
	C888.004883,56.836155 887.575378,58.570164 888.865967,60.165565 
	C889.617493,61.094727 890.840698,62.122307 891.649841,60.636585 
	C892.940247,58.266850 894.282471,55.762909 897.226379,57.472042 
	C899.916626,59.033928 901.996460,61.575909 902.114624,65.100777 
	C902.173889,66.869247 901.680786,68.842445 903.555115,69.984703 
	C903.998962,70.156067 904.424438,70.137047 904.534668,69.825760 
	C905.429688,67.297417 906.131104,64.509926 909.581848,64.563103 
	C912.937439,64.614822 913.963867,67.054657 914.525085,69.851303 
	C914.689148,70.669388 914.998901,71.488464 915.559692,72.099541 
	C918.248535,75.029335 918.457581,77.924477 915.629089,80.895416 
	C915.013977,81.541542 915.129089,82.445160 915.107788,83.638985 
	C915.831360,95.493958 915.216797,106.994850 915.487244,118.485657 
	C915.535034,120.516754 914.776917,123.949104 917.301392,124.000359 
	C920.548584,124.066284 919.371460,120.488174 919.489502,118.407677 
	C919.715759,114.420189 919.491028,110.411522 919.599243,106.413849 
	C919.872070,96.337379 923.557617,91.683052 933.260681,89.070129 
	C934.709534,88.679977 936.165771,88.305550 937.716797,87.203842 
	C939.651245,86.229294 941.018921,85.235458 942.373047,83.939453 
	C944.162354,82.226883 946.796509,81.527222 949.310730,82.687309 
	C952.005981,83.930885 951.645203,86.328506 951.289124,88.727501 
	C950.610718,93.298393 952.577148,96.585411 957.022400,98.112350 
	C962.597412,100.027351 968.377747,101.362579 973.106628,105.271561 
	C974.739136,106.621002 976.917603,106.122757 978.867188,105.473282 
	C980.776794,104.837181 983.136353,104.944534 983.842773,106.579842 
	C985.735352,110.961029 989.693237,111.394814 993.372437,112.727051 
	C996.278259,113.779205 999.184937,114.751205 1001.924500,116.490089 
	C1004.534485,118.146774 1007.812073,119.472771 1011.367798,118.363388 
	C1014.415649,117.412460 1016.575562,118.415955 1017.173096,121.858810 
	C1017.343323,122.839516 1017.856750,123.726746 1018.757690,124.750290 
	C1019.000000,144.141541 1018.897400,163.284103 1019.091187,182.423676 
	C1019.127625,186.023361 1018.516785,187.113586 1014.587036,187.107407 
	C925.703979,186.967667 836.820618,187.000000 747.468628,187.000000 
	C738.317261,180.608322 729.501465,174.330292 721.622070,166.986252 
	C715.598206,161.371613 708.581177,156.929794 703.066284,150.762695 
	C698.395203,145.539154 692.660767,141.456223 687.728027,136.514496 
	C685.975830,134.759048 683.962769,133.053940 685.066284,129.757294 
	C687.209229,127.045746 690.196899,127.982582 692.660950,127.186989 
	C693.610229,126.880478 694.626221,126.723251 695.506531,126.267754 
	C697.174133,125.404922 700.193604,124.893555 699.181946,122.534676 
	C698.257385,120.379005 695.970093,122.391472 694.389282,122.947731 
	C687.018066,125.541595 678.467834,123.456841 674.476990,117.996490 
	C669.217346,110.800110 669.278931,100.912376 674.627808,93.775200 
	C678.779602,88.235329 686.437622,86.411659 694.105896,89.046143 
	C695.802795,89.629128 698.228027,92.008888 699.198425,89.410706 
	C700.136536,86.898705 696.871521,86.263451 694.962158,85.565224 
	C684.516663,81.745544 666.955994,87.246239 666.238037,102.483719 
	C666.191040,103.479935 665.958374,104.464096 665.062622,105.566162 
	C661.580017,107.847778 658.779480,106.931648 656.331116,104.469994 
	C655.378967,103.512581 654.582581,102.484306 652.688354,102.481773 
	C649.737366,101.716827 648.766541,99.441170 647.370117,97.123947 
	C647.186218,95.616074 647.835754,94.201019 646.933105,93.375046 
	C639.979736,87.012459 635.615234,78.248268 627.748169,72.745422 
	C626.587158,71.933289 626.009094,70.768562 625.922485,69.007103 
	C628.617859,65.403458 635.004517,64.471252 640.417480,66.568001 
	C641.803711,67.104965 643.080444,67.924606 644.534058,68.285774 
	C645.725891,68.581902 646.915894,68.501015 647.590698,67.305565 
	C648.417175,65.841629 647.641541,64.698303 646.471436,63.924107 
	C643.765320,62.133682 640.650513,61.710945 637.492554,61.452229 
	C632.351501,61.031044 627.301758,62.001038 621.877625,62.225838 
	C613.255127,54.712864 607.824768,45.149315 601.527893,36.237427 
	C596.758911,29.487865 592.876953,22.129265 587.289490,15.932032 
	C584.499634,12.837634 583.303589,8.680060 580.993042,5.222815 
	C580.202209,4.039377 580.485535,2.660577 581.749512,1.275211 
z"/>
<path fill="#68BE8B" opacity="1.000000" stroke="none" 
	d="
M575.253784,186.724487 
	C504.645782,187.000000 434.291534,187.000000 363.468658,187.000000 
	C356.337891,181.041809 352.136017,173.249924 347.404846,165.877029 
	C341.315704,156.387985 335.930359,146.460312 329.576202,137.128769 
	C327.868408,134.620758 326.769226,131.822174 327.536865,128.263931 
	C329.396240,120.998817 328.303192,113.979942 328.516785,107.025948 
	C328.669861,102.043007 328.638306,97.048897 328.484650,92.063385 
	C328.435974,90.484940 328.696350,88.122017 326.562744,88.055130 
	C324.351074,87.985802 324.571686,90.366096 324.525574,91.927742 
	C324.348877,97.910851 324.504730,103.898636 324.429077,109.883919 
	C324.397705,112.367218 324.589142,114.883369 323.466492,117.616653 
	C321.066467,119.733910 319.249481,119.103226 317.784332,117.017860 
	C316.356018,114.984978 314.706543,113.043839 313.766602,110.743370 
	C309.820953,101.086838 303.385925,92.706818 299.751617,82.857048 
	C298.256714,78.805504 294.082001,75.833321 294.822571,70.486359 
	C296.731018,67.984138 298.678436,68.665359 300.755798,69.627388 
	C302.355530,70.368210 304.437866,71.583000 305.499878,69.300606 
	C306.523102,67.101540 304.241852,66.165260 302.771362,65.269226 
	C299.655457,63.370605 296.330902,61.912876 292.666016,61.405323 
	C290.690460,61.131718 288.664459,60.970940 287.580444,58.453079 
	C279.308624,45.535202 275.930115,30.752060 268.799438,17.683582 
	C266.853973,14.118046 266.385773,9.803912 264.528168,6.078463 
	C263.691742,4.400999 264.137268,2.858921 265.732574,1.282204 
	C326.354218,1.000000 386.708466,1.000000 447.531342,1.000000 
	C450.632263,2.809565 452.814117,4.954166 454.216431,7.936664 
	C460.921875,22.198162 469.181335,35.606838 477.100281,49.198044 
	C482.687775,58.787720 489.018707,67.925385 494.388397,77.659676 
	C495.802155,80.222519 495.489716,82.747620 495.691742,85.716324 
	C491.096222,91.561134 490.073639,91.744125 484.740326,87.690994 
	C479.161926,83.451645 473.334473,83.671486 467.386230,86.653854 
	C464.409882,88.146126 461.948608,89.659088 458.195251,87.573364 
	C455.001923,85.798805 454.576874,89.327019 454.524139,91.593376 
	C454.330566,99.909935 454.459381,108.230713 454.447296,116.549881 
	C454.444885,118.212746 454.332581,119.888100 454.592194,121.533875 
	C454.793457,122.809570 454.884277,124.474838 456.738281,124.278687 
	C458.146973,124.129639 458.337738,122.690651 458.412109,121.542381 
	C458.724243,116.723907 458.503967,111.895958 458.565796,107.072189 
	C458.602142,104.236893 458.717346,101.440475 459.672119,98.708740 
	C462.406647,90.884743 468.697845,86.644180 475.482269,88.152611 
	C481.963196,89.593567 485.860687,95.888596 484.929230,104.078720 
	C484.304871,109.568672 484.468811,115.041664 484.533051,120.523903 
	C484.553802,122.294373 484.570068,124.702408 486.988739,124.740372 
	C489.462646,124.779213 489.428589,122.365410 489.482819,120.592262 
	C489.691376,113.773827 489.344788,106.944565 489.677094,100.130707 
	C490.005920,93.388634 494.514160,88.989136 500.867065,89.453125 
	C508.205536,96.550072 512.415527,104.526978 511.576630,114.739586 
	C511.308868,117.999229 512.027344,121.299301 514.622437,124.192825 
	C518.187134,128.028030 519.238037,124.383965 521.155273,122.365173 
	C524.314697,120.876526 526.306213,122.298904 527.832947,124.460381 
	C536.351501,136.520996 546.368225,147.395447 555.239563,159.196289 
	C560.346924,165.990356 566.737305,171.924393 572.754944,178.054703 
	C574.992493,180.334137 578.179382,182.481995 575.253784,186.724487 
z"/>
<path fill="#64BC88" opacity="1.000000" stroke="none" 
	d="
M296.000916,69.115219 
	C296.347656,75.487381 301.017944,79.396362 303.360107,84.431107 
	C308.333466,95.121880 314.216705,105.389946 319.759613,115.813927 
	C320.133881,116.517799 320.781219,117.076485 321.592712,117.853233 
	C323.183807,118.250908 324.019104,119.152969 324.032135,120.344994 
	C324.072357,124.023277 326.354248,126.253464 328.928955,128.760468 
	C329.814972,135.203064 334.073364,139.623627 337.137604,144.400330 
	C342.775055,153.188477 347.708862,162.398956 353.543274,171.050903 
	C356.876495,175.993805 361.109772,180.380676 362.918671,186.650055 
	C295.645782,187.000000 228.291550,187.000000 160.468658,187.000000 
	C158.328629,185.666046 156.497955,184.520782 155.541489,182.450104 
	C150.266602,171.030472 143.423050,160.420746 138.233856,148.951111 
	C137.152191,146.560333 136.568344,144.297760 138.005646,141.502991 
	C140.265610,139.218964 142.883926,139.663574 145.321671,139.622849 
	C153.811676,139.481003 162.304321,139.632965 170.795288,139.535233 
	C177.270996,139.460693 183.109314,138.788971 184.371109,130.423965 
	C184.848877,127.256721 187.871933,127.534996 190.461624,128.757355 
	C197.088272,131.885208 203.157486,136.010254 209.646881,139.391388 
	C215.374817,142.375778 216.981476,141.529541 216.993118,134.981628 
	C217.015320,122.494232 217.024017,110.006706 216.988968,97.519371 
	C216.972733,91.731827 215.522461,90.830040 210.505402,93.830894 
	C204.372635,97.499077 198.094574,100.903511 191.901138,104.459526 
	C186.858292,107.354919 185.425110,106.722389 183.891830,101.286545 
	C183.383270,99.483620 182.406631,97.979424 181.151169,96.598518 
	C178.691177,93.892738 179.199219,91.462242 182.091278,89.483826 
	C185.556229,87.113503 188.663376,84.381889 191.015869,80.888893 
	C203.047058,63.025013 194.268845,38.593544 172.683289,33.585171 
	C151.881088,28.758564 135.339417,44.599476 134.921249,62.236187 
	C134.678421,72.477692 138.613983,80.529388 145.871872,87.296707 
	C147.197983,88.533195 149.045731,89.508362 148.353073,91.732643 
	C147.577652,94.222687 145.380005,93.986900 143.375046,93.991867 
	C138.047546,94.005051 132.715805,94.130112 127.393936,93.948891 
	C123.483124,93.815720 122.059372,91.620193 124.052971,88.418205 
	C127.959984,82.143021 128.072495,76.246269 123.090714,70.655785 
	C118.236244,65.208160 113.006256,64.440407 104.717567,67.628265 
	C103.916306,67.936432 103.125984,68.075951 101.914490,67.748734 
	C98.804893,64.993065 99.205482,61.167088 97.860237,57.995998 
	C91.123589,42.116047 85.793526,25.696634 79.797050,9.530968 
	C78.877342,7.051558 77.084244,4.330346 79.724960,1.293096 
	C141.687561,1.000000 203.375122,1.000000 265.531342,1.000000 
	C267.342804,7.838338 269.812531,14.353561 272.893311,20.504530 
	C276.677063,28.058990 280.040619,35.761875 282.652954,43.751614 
	C284.259247,48.664444 288.280304,52.423748 288.864594,58.132408 
	C287.014099,60.861103 284.248444,60.946671 281.662476,61.403168 
	C261.824921,64.905067 253.224823,77.941383 253.672684,96.206200 
	C254.117065,114.329773 268.912811,128.245667 286.706085,128.353088 
	C292.763367,128.389648 298.551483,126.629028 303.716431,123.283104 
	C305.353668,122.222481 307.806335,120.948227 306.402924,118.730583 
	C304.897064,116.350967 302.884979,118.370110 301.275452,119.402153 
	C291.285797,125.807579 281.005676,125.799141 271.236847,119.551781 
	C258.863068,111.638481 255.148972,92.789017 262.397095,79.909233 
	C268.713043,68.685852 278.040131,64.123833 290.643158,65.706512 
	C292.867310,65.985817 294.942932,66.394615 296.000916,69.115219 
z"/>
<path fill="#6CC08E" opacity="1.000000" stroke="none" 
	d="
M575.468628,187.000000 
	C574.900696,184.564926 573.979187,182.479355 572.220520,180.809036 
	C560.960938,170.115067 551.228760,158.129517 541.718018,145.878494 
	C536.348450,138.961777 530.690125,132.248123 525.404541,125.245895 
	C524.745911,124.373283 523.605286,123.864502 522.360596,123.094208 
	C519.421875,121.953613 519.751587,119.558197 519.658325,117.487137 
	C519.434448,112.514702 519.561584,107.533554 519.559937,102.556229 
	C519.558960,99.537956 519.158936,96.596397 518.189270,93.745285 
	C516.052368,87.461960 511.516479,84.559448 504.474640,84.430214 
	C501.137085,84.368965 498.054108,86.202347 494.343903,85.210587 
	C493.400940,78.416534 489.028259,73.556381 485.974701,68.190216 
	C479.827515,57.387280 472.735016,47.120079 466.642670,36.288639 
	C460.236359,24.899006 453.513275,13.654987 448.080292,1.346661 
	C492.354218,1.000000 536.708435,1.000000 581.531372,1.000000 
	C582.876282,5.541516 585.520630,9.502468 588.200012,12.762755 
	C596.973206,23.437977 603.189270,35.835339 611.858398,46.542713 
	C615.395325,50.911186 618.496338,55.632523 621.892822,60.511131 
	C622.505066,63.303551 620.598999,64.463539 619.138977,65.699928 
	C608.388184,74.804245 612.341858,90.262711 624.643005,94.586128 
	C628.253418,95.855057 631.873535,97.102264 635.477783,98.391884 
	C644.440552,101.598831 647.832642,106.563110 645.992310,113.796211 
	C644.383789,120.118370 635.892212,124.979294 628.429321,123.879608 
	C624.929504,123.363899 621.643921,122.304657 618.611816,120.437706 
	C617.128906,119.524620 615.297302,118.845909 614.199707,120.691803 
	C613.061462,122.605957 614.791687,123.698364 616.165222,124.652100 
	C623.485413,129.734848 638.039246,129.336899 645.037659,123.767822 
	C650.269409,119.604576 652.248169,113.977386 651.929932,107.424988 
	C651.835876,105.487770 650.831665,103.492996 652.581177,101.453712 
	C655.029297,99.725952 656.093811,101.841003 657.500183,102.678299 
	C659.172424,103.673859 660.692566,104.968590 663.134033,104.989914 
	C666.062439,105.144524 666.122681,107.197639 666.294678,108.954742 
	C667.207825,118.284767 672.391479,124.007675 681.097107,126.917580 
	C682.774780,127.478363 684.730225,127.653778 685.907288,129.767487 
	C686.559692,131.142609 686.896484,132.420502 687.724121,133.105301 
	C696.778625,140.597778 704.509888,149.517227 713.845764,156.753693 
	C719.402161,161.060547 724.461792,166.068024 729.888245,170.614594 
	C734.354736,174.356949 738.516296,178.400452 743.823608,180.991959 
	C745.960876,182.035583 746.998047,183.848953 746.988037,186.621841 
	C689.979126,187.000000 632.958191,187.000000 575.468628,187.000000 
z"/>
<path fill="#60BA85" opacity="1.000000" stroke="none" 
	d="
M138.793488,141.347229 
	C140.323105,150.968323 145.846237,158.392532 150.027634,166.353333 
	C153.478043,172.922455 157.076233,179.395721 159.918121,186.648010 
	C108.386681,187.000000 56.773300,186.971710 5.160169,187.070831 
	C2.087544,187.076721 0.874476,186.925674 0.884836,183.167969 
	C1.048694,123.729858 1.047326,64.291023 0.886854,4.852895 
	C0.876825,1.138073 2.021921,0.905631 5.139583,0.923126 
	C29.779984,1.061398 54.421505,1.000000 79.531342,1.000000 
	C81.199249,9.521276 85.485565,17.027634 88.064354,25.104258 
	C91.653595,36.345585 96.308037,47.252438 100.673241,58.236202 
	C101.694893,60.806911 102.062614,63.345146 101.990410,66.448929 
	C102.534592,68.889763 101.325935,70.372971 100.408112,71.928467 
	C96.393898,78.731651 96.993736,85.172157 102.763931,90.378807 
	C105.951187,93.254776 107.310753,95.880363 104.735123,99.754211 
	C103.857567,101.074104 104.135445,102.714371 104.087044,104.277618 
	C103.836266,112.377296 104.041100,120.477173 103.973175,128.576126 
	C103.910828,136.011719 106.946220,139.090622 114.458221,139.454086 
	C120.271111,139.735336 126.097374,139.456924 131.914490,139.608582 
	C134.191101,139.667969 136.622238,139.247772 138.793488,141.347229 
z"/>
<path fill="#74C394" opacity="1.000000" stroke="none" 
	d="
M913.445618,83.580475 
	C913.163574,82.861786 912.926514,82.180969 913.164978,81.890312 
	C917.217224,76.951851 912.379639,72.989403 911.699707,68.593903 
	C911.437439,66.898285 910.158569,65.819458 908.419250,66.870743 
	C906.872437,67.805679 907.079895,69.304550 907.835449,70.829666 
	C908.426758,72.023346 911.132141,72.548721 909.610107,74.261185 
	C908.371887,75.654289 906.428284,74.351723 904.959778,73.752289 
	C901.134888,72.190956 896.945923,71.117172 899.481140,65.000206 
	C900.463257,62.630486 897.421814,60.509750 895.585876,58.784985 
	C893.867798,59.470341 894.504883,60.509586 894.776245,61.400295 
	C895.246887,62.945171 896.544556,64.685471 894.781738,65.951912 
	C893.078125,67.175766 891.723389,65.333389 890.312073,64.641457 
	C885.819092,62.438667 883.650757,59.196995 885.920715,54.133060 
	C886.256165,53.384640 886.772278,52.575306 885.963867,51.863888 
	C885.229248,51.217335 884.420898,51.599434 883.648193,51.937172 
	C882.124573,52.603149 880.615479,53.313286 879.056091,53.884144 
	C876.232971,54.917606 873.673828,53.699673 872.844238,51.336296 
	C872.096252,49.205498 871.347412,48.576488 869.267151,48.313789 
	C866.691406,47.988510 866.229309,45.622875 865.592285,43.503258 
	C864.721191,40.604992 863.754883,37.599899 859.895752,40.786522 
	C858.982849,41.540394 857.809509,41.437321 857.164490,40.657379 
	C854.097290,36.948479 848.981323,34.891010 847.966309,29.544518 
	C847.502991,27.104149 846.314148,26.003456 843.818237,26.563866 
	C840.625244,27.280790 838.450439,25.893053 836.551453,23.414921 
	C834.322510,20.506155 831.603516,18.061525 828.723022,15.756657 
	C824.013489,11.988282 818.825989,8.483365 818.084473,1.323170 
	C883.578186,1.000000 949.156372,1.034274 1014.734314,0.906010 
	C1018.278931,0.899077 1019.121094,1.560844 1019.105469,5.223505 
	C1018.936584,44.835995 1019.000000,84.449471 1019.000000,124.531342 
	C1015.838989,124.689720 1015.463806,121.360458 1012.883484,119.040352 
	C1013.416199,123.709251 1011.414978,122.747726 1008.927917,122.018265 
	C1001.093811,119.720528 994.352661,114.483185 985.995300,113.612503 
	C984.612915,113.468475 983.417053,112.484917 983.265686,111.036980 
	C982.837463,106.941689 980.659241,107.147163 977.719360,108.449478 
	C975.967712,109.225426 973.899048,109.236565 972.450623,108.047653 
	C967.347595,103.859077 961.194641,102.204857 955.126526,100.188026 
	C951.683960,99.043839 949.982666,94.587891 945.415405,95.020912 
	C944.270142,95.129501 944.205261,93.234795 945.210022,92.254616 
	C945.790161,91.688660 946.620300,91.388786 947.288391,90.901283 
	C949.314514,89.422813 949.978882,86.963692 948.931763,85.196266 
	C947.819336,83.318733 945.602417,84.910103 944.015198,85.569809 
	C942.822998,86.065323 941.826904,87.032722 940.417969,87.896332 
	C935.064331,82.933548 930.422729,84.537262 925.841736,88.741974 
	C924.325928,90.133339 922.097961,90.570526 920.939758,88.871605 
	C919.088440,86.156113 915.971924,85.672379 913.445618,83.580475 
z"/>
<path fill="#FBFDFC" opacity="1.000000" stroke="none" 
	d="
M652.611328,101.067062 
	C657.790833,117.894089 647.599792,131.096252 630.178406,130.578354 
	C623.227539,130.371750 616.589661,129.029648 611.264038,124.080307 
	C610.058044,122.959549 607.601868,121.444374 610.259827,119.880661 
	C612.607361,118.499596 613.713257,112.978455 617.983521,116.742912 
	C623.156311,121.302940 628.944153,122.762421 635.573242,121.020042 
	C640.431152,119.743202 644.041809,115.701576 644.295837,111.272339 
	C644.591980,106.109718 641.616638,103.287460 637.211304,101.611481 
	C632.862000,99.956802 628.449646,98.468636 624.086975,96.848152 
	C616.226257,93.928329 611.396057,88.627098 610.697571,79.961319 
	C609.992676,71.216118 614.321594,65.450241 621.711060,61.030773 
	C631.481384,57.805538 640.826782,57.296558 649.625000,62.890499 
	C651.130676,63.847790 654.218750,64.523346 652.236694,67.592140 
	C649.778625,71.397896 645.837585,72.950546 643.466980,70.958748 
	C638.650208,66.911659 633.088379,67.640671 627.216614,68.510582 
	C626.354614,69.644432 626.233276,70.657410 625.828735,71.552673 
	C621.984497,80.059219 623.260803,83.155037 631.991882,86.501740 
	C636.851379,88.364441 642.088745,89.308975 646.342041,92.656670 
	C647.379639,93.473343 648.509277,94.033585 648.801880,95.817139 
	C650.072693,97.717430 651.207581,99.296768 652.611328,101.067062 
z"/>
<path fill="#FBFDFC" opacity="1.000000" stroke="none" 
	d="
M858.228516,114.409042 
	C855.095642,103.638115 857.083923,94.308205 865.360168,87.281853 
	C872.977478,80.814865 881.999817,80.078392 891.101440,84.159546 
	C898.891602,87.652687 904.139160,98.195381 903.060120,106.632729 
	C902.688293,109.540222 900.850708,109.050209 899.128235,109.057335 
	C889.808350,109.095901 880.487976,109.038414 871.168579,109.116150 
	C869.613892,109.129112 867.498230,108.249344 866.613159,110.022659 
	C865.737854,111.776405 867.010925,113.544067 867.951721,115.096359 
	C872.762817,123.034370 884.134827,124.969673 891.332397,118.415199 
	C895.287109,114.813828 897.207520,117.515198 899.387512,119.687073 
	C901.491699,121.783493 898.896118,122.914520 897.715088,123.953896 
	C884.849731,135.276382 865.903931,130.832474 858.228516,114.409042 
z"/>
<path fill="#FBFDFC" opacity="1.000000" stroke="none" 
	d="
M746.010925,127.189857 
	C736.372314,131.619400 727.322754,131.123001 719.405457,124.613228 
	C712.144348,118.642929 708.650635,110.677658 710.669312,101.068420 
	C712.939514,90.262383 722.453491,82.359634 733.374390,81.940948 
	C745.246826,81.485779 754.865601,88.279022 758.258545,99.515236 
	C761.447571,110.076042 756.818604,120.766815 746.010925,127.189857 
z"/>
<path fill="#FAFDFB" opacity="1.000000" stroke="none" 
	d="
M770.123108,84.406357 
	C777.490906,81.438141 778.815063,82.276886 778.820251,89.428185 
	C778.825317,96.419540 778.761841,103.411476 778.833923,110.402077 
	C778.900024,116.819748 781.434143,120.242149 786.774353,121.419853 
	C792.749390,122.737579 797.756653,120.291382 800.333740,114.792221 
	C801.481384,112.343361 802.020752,109.787277 801.992065,107.061028 
	C801.923889,100.569733 802.101440,94.073006 801.900146,87.587158 
	C801.799622,84.349670 802.419678,82.754219 806.186279,82.863525 
	C809.495667,82.959572 810.902832,83.675247 810.846985,87.307388 
	C810.655090,99.789062 810.718750,112.275711 810.800232,124.759720 
	C810.818481,127.544601 810.271667,129.236801 806.972107,128.969681 
	C804.360840,128.758301 801.275940,129.553391 801.907959,125.147110 
	C801.965576,124.745705 801.680359,124.295128 801.415649,123.396530 
	C796.331970,128.365173 790.642395,130.874908 783.685974,129.650726 
	C775.347290,128.183289 770.111450,122.320213 770.017578,113.825546 
	C769.910889,104.172554 770.023560,94.517143 770.123108,84.406357 
z"/>
<path fill="#FAFDFB" opacity="1.000000" stroke="none" 
	d="
M686.430176,130.085876 
	C671.110657,127.866714 664.666504,120.882927 663.548706,105.445946 
	C666.497375,84.969383 685.165649,75.405334 701.142273,85.805862 
	C702.578674,86.740967 706.214966,87.581741 703.729736,90.285255 
	C701.943726,92.228195 700.462463,96.405045 695.908325,92.996811 
	C689.716309,88.362747 681.315552,89.434723 676.919861,94.618523 
	C671.567078,100.930939 671.540344,111.026688 676.860413,117.125854 
	C681.516602,122.463951 690.108643,123.586922 696.297363,118.946411 
	C700.745728,115.610916 701.892822,119.844055 703.563538,121.682533 
	C706.034485,124.401695 702.528015,125.223953 701.079651,126.264099 
	C696.867188,129.289291 691.939392,130.032944 686.430176,130.085876 
z"/>
<path fill="#F9FDFB" opacity="1.000000" stroke="none" 
	d="
M840.672974,121.505409 
	C842.215332,121.641663 843.371399,121.690468 844.527771,121.696991 
	C846.222046,121.706551 848.717896,119.811234 848.799316,123.555382 
	C848.857300,126.226814 849.224365,128.683228 845.426514,129.580338 
	C834.068665,132.263229 827.231506,127.120758 827.116821,115.365501 
	C827.053589,108.882240 826.878540,102.387146 827.185547,95.917877 
	C827.380310,91.814507 826.117737,90.098785 821.903809,90.552818 
	C819.435303,90.818779 816.859314,91.023392 816.977417,86.995712 
	C817.062683,84.090492 817.747559,82.423088 820.888428,82.998917 
	C826.533630,84.033875 827.521301,81.156082 827.224854,76.322655 
	C827.075195,73.884315 825.345825,70.071030 830.712280,69.921928 
	C834.768494,69.809227 836.697083,70.865738 835.993958,75.128838 
	C835.913879,75.614365 835.978882,76.124611 835.984192,76.623314 
	C836.061157,83.858788 835.380737,82.723824 842.455994,83.057983 
	C844.614807,83.159943 848.143433,81.148491 848.440918,85.859032 
	C848.642212,89.046410 847.985474,90.697769 844.194397,90.692841 
	C835.983093,90.682152 835.978333,90.887032 835.984192,99.356102 
	C835.987610,104.343529 835.881531,109.335693 836.068542,114.316574 
	C836.181335,117.320061 836.573486,120.419281 840.672974,121.505409 
z"/>
<path fill="#F7FCF9" opacity="1.000000" stroke="none" 
	d="
M913.235962,83.802696 
	C914.161072,83.234016 915.142090,83.004456 916.124512,82.998566 
	C919.526611,82.978149 923.903748,81.736389 921.721130,89.176537 
	C926.239929,85.297195 929.582886,82.411972 934.294250,81.924873 
	C938.365234,81.503975 940.778076,82.463768 940.030762,87.574249 
	C939.946045,90.512016 939.226318,91.551529 936.130981,91.384995 
	C927.342224,90.912178 922.424622,95.729691 922.179932,104.549660 
	C922.004395,110.875916 922.065430,117.212357 922.177490,123.541481 
	C922.235474,126.812805 922.269897,129.200531 917.618774,129.110657 
	C913.254211,129.026321 913.320862,126.773270 913.329163,123.729691 
	C913.365051,110.568047 913.312744,97.406158 913.235962,83.802696 
z"/>
<path fill="#6CC08E" opacity="1.000000" stroke="none" 
	d="
M649.052002,95.836411 
	C643.567383,92.820938 637.564819,91.038185 631.648071,89.062332 
	C628.815369,88.116394 626.072144,86.996338 623.713196,85.158218 
	C619.695007,82.027328 618.675171,72.490486 626.563599,68.882233 
	C635.861877,75.055473 641.648254,84.222298 648.614807,92.300545 
	C649.469299,93.291412 649.609924,94.349724 649.052002,95.836411 
z"/>
<path fill="#FAFDFB" opacity="1.000000" stroke="none" 
	d="
M493.820679,85.282822 
	C497.504486,83.039505 501.117371,81.718102 505.279419,81.874969 
	C514.081970,82.206734 519.519104,86.662727 521.053772,95.344536 
	C522.620239,104.206566 521.386719,113.171364 521.948364,122.539040 
	C521.511475,129.431808 521.511475,129.431808 513.123657,128.314926 
	C511.247894,123.511528 512.061768,118.777809 511.503845,114.176178 
	C511.203308,111.697586 511.173370,109.139969 511.145599,106.648659 
	C511.064697,99.391167 508.615509,93.817497 501.252167,90.655312 
	C494.451813,91.845016 491.555115,95.497490 491.403992,102.951828 
	C491.255615,110.271790 491.227661,117.601006 491.431061,124.918266 
	C491.526031,128.334412 490.104248,129.038177 487.021881,129.028549 
	C483.952850,129.018936 482.516876,128.357864 482.637939,124.911324 
	C482.877289,118.095848 482.771362,111.266052 482.702728,104.443245 
	C482.681152,102.298042 482.441467,100.136673 482.092896,98.017029 
	C481.416962,93.906578 479.500519,90.759193 474.942291,90.245316 
	C470.322113,89.724464 466.358002,90.946152 463.758026,95.124252 
	C461.961700,98.010895 461.022736,101.139984 461.048676,104.579956 
	C461.098907,111.236794 460.878601,117.901352 461.134705,124.548676 
	C461.271851,128.107574 460.024933,129.018707 456.594482,129.052811 
	C452.913818,129.089340 452.158661,127.624786 452.198669,124.327820 
	C452.344025,112.346588 452.189301,100.361832 452.313812,88.380127 
	C452.335663,86.277420 450.862061,83.043106 455.234863,82.941772 
	C458.509644,82.865883 461.447571,82.832329 460.752075,87.433655 
	C463.023468,87.752251 463.821228,85.958099 465.087402,85.109695 
	C471.992035,80.483269 481.165436,80.332932 486.217621,85.966705 
	C489.612671,89.752602 491.318817,88.456818 493.820679,85.282822 
z"/>
<path fill="#FBFDFC" opacity="1.000000" stroke="none" 
	d="
M296.383575,69.627441 
	C287.328217,65.804657 278.873016,66.602089 271.577484,72.441963 
	C263.323364,79.049156 260.035645,88.150276 261.354004,98.678085 
	C262.602203,108.645935 267.287384,116.453636 277.040375,120.025223 
	C286.703827,123.564041 295.568848,122.237091 303.263733,114.633217 
	C306.909058,111.030983 308.492523,116.226532 310.793182,117.514221 
	C313.558472,119.061989 310.880493,120.604988 309.772949,121.699219 
	C295.290070,136.007477 267.631744,132.430969 257.085541,114.680916 
	C248.548325,100.312157 248.879349,85.594795 258.345459,71.974815 
	C265.282440,61.993752 276.074249,58.471565 288.462280,58.581032 
	C295.999817,59.112610 302.548798,61.258427 308.032257,65.986900 
	C309.197571,66.991753 311.953369,68.408310 309.524872,70.098755 
	C307.286896,71.656563 305.812012,76.356941 301.591095,73.199455 
	C300.000000,72.009247 298.342865,70.907387 296.383575,69.627441 
z"/>
<path fill="#FBFDFC" opacity="1.000000" stroke="none" 
	d="
M419.953125,81.902420 
	C433.637909,82.581757 441.772186,91.430069 442.006439,105.112114 
	C442.058319,108.143501 441.176544,109.186409 438.083252,109.132889 
	C428.589661,108.968613 419.091339,109.052544 409.595001,109.083099 
	C404.711273,109.098816 404.106049,110.214249 406.498932,114.567451 
	C411.136353,123.004089 422.695709,124.799316 430.628418,118.272499 
	C432.136932,117.031319 433.126007,115.413681 435.577362,117.252640 
	C439.959778,120.540184 440.188416,121.497444 435.633148,124.761177 
	C427.046997,130.912872 417.659760,132.022736 408.265594,127.375244 
	C399.347260,122.963142 395.690979,114.947098 395.874329,105.145210 
	C396.052734,95.609917 400.555023,88.682312 408.877899,84.238403 
	C412.156677,82.487755 415.767822,81.805710 419.953125,81.902420 
z"/>
<path fill="#FDFEFD" opacity="1.000000" stroke="none" 
	d="
M353.441528,85.809486 
	C354.551239,89.405327 355.755554,86.740723 356.528992,86.108398 
	C360.951111,82.493111 365.988800,81.353989 371.522400,82.111893 
	C379.524109,83.207855 384.927704,88.738632 385.194702,96.841293 
	C385.507416,106.330086 385.179962,115.838379 385.344482,125.334503 
	C385.404236,128.783051 383.551208,128.921188 380.934509,128.975830 
	C378.122314,129.034515 376.620483,128.448563 376.699219,125.168625 
	C376.879150,117.673660 376.788025,110.171059 376.738068,102.672012 
	C376.686523,94.933151 373.546143,90.748978 367.419128,90.098358 
	C360.407532,89.353806 354.675507,93.494537 353.904297,101.081078 
	C353.132690,108.671799 353.307251,116.386421 353.498627,124.035927 
	C353.598267,128.019775 352.272003,129.209518 348.389618,129.020157 
	C345.446838,128.876587 344.753448,127.764572 344.771088,125.103149 
	C344.856079,112.271484 344.794861,99.438904 344.827728,86.606758 
	C344.831726,85.037964 344.446198,82.748711 347.025116,83.117455 
	C349.228455,83.432487 352.640686,81.017982 353.441528,85.809486 
z"/>
<path fill="#F9FDFB" opacity="1.000000" stroke="none" 
	d="
M329.392883,128.990204 
	C322.172089,128.714188 322.172089,128.714188 321.951752,118.457428 
	C321.949738,107.723190 322.179352,97.439682 321.995911,87.163551 
	C321.928467,83.384407 323.544800,82.913170 326.715637,82.884323 
	C329.895966,82.855377 331.055511,83.724701 331.010468,87.063118 
	C330.840454,99.667892 330.965515,112.276428 330.905518,124.883202 
	C330.899048,126.241844 331.587860,127.940536 329.392883,128.990204 
z"/>
<path fill="#6CC08E" opacity="1.000000" stroke="none" 
	d="
M500.985352,90.821579 
	C508.938751,89.489326 512.784363,92.839905 512.943787,101.355034 
	C513.104248,109.924080 512.962585,118.498787 512.899536,127.537163 
	C509.718872,125.886177 510.768341,122.416634 510.814484,119.750183 
	C511.001160,108.967339 506.513214,99.962273 500.985352,90.821579 
z"/>
<path fill="#F9FDFB" opacity="1.000000" stroke="none" 
	d="
M324.625977,72.525185 
	C321.191559,71.015205 319.625977,68.658585 320.278442,65.308899 
	C320.788940,62.687904 322.592377,60.970444 325.232788,60.360878 
	C327.944427,59.734859 330.106018,60.815590 331.690704,62.959961 
	C333.048340,64.797058 333.440369,66.871475 332.315826,68.996956 
	C330.756165,71.944794 328.354279,73.288589 324.625977,72.525185 
z"/>
<path fill="#F7FCF9" opacity="1.000000" stroke="none" 
	d="
M139.471100,141.591888 
	C131.031616,141.601608 123.048111,141.527664 115.065781,141.387268 
	C105.912476,141.226303 102.041641,137.304413 102.016655,128.212997 
	C101.996063,120.720650 102.170235,113.223404 101.944908,105.737755 
	C101.828903,101.883820 104.307541,98.623505 104.466949,95.413918 
	C104.614960,92.433586 99.273399,91.062248 97.684715,87.472549 
	C94.472832,80.215179 95.422340,74.310356 101.794464,67.148331 
	C114.375854,60.183517 126.491425,65.133484 128.548019,77.717354 
	C129.385681,82.842873 127.454224,87.159111 123.724525,92.110588 
	C128.270264,92.110588 131.967041,92.110580 135.663834,92.110580 
	C139.481308,92.110580 143.298798,92.110588 147.172729,92.110588 
	C147.382538,89.854111 145.538620,89.554459 144.526581,88.701691 
	C133.860886,79.714432 129.957932,64.638802 134.963501,51.457340 
	C139.932526,38.372120 153.052567,30.173515 167.867523,30.895868 
	C180.977066,31.535070 193.488983,41.394161 197.040710,53.883656 
	C201.012985,67.852104 195.920074,82.535294 184.133575,90.447372 
	C181.556351,92.177414 179.775909,93.145744 183.247559,95.914024 
	C185.789993,97.941338 186.300110,101.284653 186.085144,105.380600 
	C191.667465,102.200111 196.542786,99.429977 201.410477,96.646515 
	C204.880112,94.662491 208.338577,92.658974 211.803635,90.666931 
	C218.536896,86.796005 218.963348,87.023590 218.970703,94.570023 
	C218.980301,104.401764 218.973373,114.233528 218.972977,124.065277 
	C218.972763,129.397751 219.000427,134.730438 218.962463,140.062637 
	C218.922424,145.683975 217.832855,146.325363 212.781311,143.529694 
	C204.200668,138.780884 195.670639,133.940628 186.491257,128.786118 
	C186.075516,133.414352 184.812820,137.230652 181.092834,139.638458 
	C177.465164,141.986542 173.373749,141.325760 169.420303,141.364944 
	C159.589981,141.462402 149.758560,141.448212 139.471100,141.591888 
z"/>
<path fill="#FAFDFB" opacity="1.000000" stroke="none" 
	d="
M563.930542,99.100891 
	C563.349915,90.543190 556.961426,86.963280 547.936951,89.755974 
	C546.213501,90.289307 544.409241,90.992279 543.020813,92.094063 
	C539.376282,94.986244 537.747742,91.755135 536.391418,89.702675 
	C534.619812,87.021744 537.802490,86.514496 539.222900,85.659363 
	C546.344421,81.372063 554.029358,80.883507 561.866150,83.132271 
	C568.351257,84.993164 572.301758,90.419258 572.393372,97.264755 
	C572.515930,106.420593 572.455933,115.578896 572.581421,124.734665 
	C572.612793,127.024948 573.011902,129.103073 569.557556,128.978165 
	C566.900024,128.882065 564.370972,129.124329 564.838074,125.245193 
	C564.891418,124.801987 564.639893,124.322075 564.513550,123.791168 
	C562.506348,123.700615 561.722961,125.472847 560.442871,126.366631 
	C553.756348,131.035233 546.639648,131.063187 539.593201,127.823112 
	C534.867615,125.650215 532.551086,121.436562 532.647644,116.064568 
	C532.759094,109.858826 535.943848,105.787186 541.385010,103.248764 
	C546.975769,100.640564 553.028137,100.744644 558.985840,100.292397 
	C560.609558,100.169151 562.340088,100.669746 563.930542,99.100891 
z"/>
<path fill="#74C394" opacity="1.000000" stroke="none" 
	d="
M866.600464,101.184288 
	C868.203125,93.659836 872.816162,89.363441 879.200134,88.954826 
	C886.203247,88.506592 890.770752,91.298065 892.945862,97.148918 
	C894.246643,100.648079 893.768616,102.400711 889.466492,102.117683 
	C881.902100,101.620033 874.288269,102.716942 866.600464,101.184288 
z"/>
<path fill="#71C292" opacity="1.000000" stroke="none" 
	d="
M719.624390,106.000107 
	C720.351685,97.075134 723.807312,92.314011 730.402771,90.706306 
	C737.512512,88.973244 743.602173,91.065208 747.057068,96.427574 
	C751.163574,102.801079 750.805054,111.069695 745.964661,116.863998 
	C741.562927,122.133446 735.730896,122.520592 729.613831,120.966103 
	C723.839905,119.498817 720.304321,114.164803 719.624390,106.000107 
z"/>
<path fill="#6CC08E" opacity="1.000000" stroke="none" 
	d="
M405.939819,98.184448 
	C408.865082,91.805855 413.460297,88.686386 420.221222,88.918488 
	C425.545685,89.101280 429.399384,91.399437 431.522949,96.379654 
	C433.569885,101.180138 432.999390,102.055443 427.704071,102.072525 
	C421.234894,102.093407 414.764038,101.992554 408.296936,102.110123 
	C405.409637,102.162613 404.728638,101.075668 405.939819,98.184448 
z"/>
<path fill="#66BD89" opacity="1.000000" stroke="none" 
	d="
M167.942963,137.195023 
	C150.295853,137.197189 133.139694,137.215683 115.983582,137.193237 
	C108.166374,137.183014 106.146683,135.189850 106.124268,127.553612 
	C106.101784,119.891724 106.054283,112.228874 106.147430,104.568031 
	C106.214188,99.077324 108.533417,96.370491 113.976448,96.329681 
	C134.129120,96.178551 154.284637,96.178886 174.436951,96.359848 
	C179.654831,96.406693 181.902206,99.101326 181.960159,104.318901 
	C182.045258,111.979927 181.992676,119.642593 181.982559,127.304543 
	C181.971909,135.363724 180.152618,137.145401 171.931793,137.190933 
	C170.765884,137.197388 169.599899,137.193665 167.942963,137.195023 
z"/>
<path fill="#68BE8B" opacity="1.000000" stroke="none" 
	d="
M148.565262,40.454987 
	C164.761368,30.553446 181.752441,34.420914 190.666016,49.755043 
	C196.692444,60.122364 195.375214,72.338943 187.157532,82.294296 
	C179.993011,90.973801 167.202209,94.416740 156.275238,90.607018 
	C145.190582,86.742302 137.251831,75.883171 136.922897,64.561417 
	C136.633255,54.592548 140.936172,46.945381 148.565262,40.454987 
z"/>
<path fill="#68BE8B" opacity="1.000000" stroke="none" 
	d="
M113.692268,91.999329 
	C104.872849,91.647865 99.315582,86.054794 100.055016,78.719635 
	C100.756706,71.758965 106.922768,67.043922 114.175186,67.922264 
	C119.630638,68.582977 124.105057,73.310829 124.616707,78.955185 
	C125.166618,85.021568 121.176903,89.956619 113.692268,91.999329 
z"/>
<path fill="#68BE8B" opacity="1.000000" stroke="none" 
	d="
M214.865967,117.999832 
	C214.865738,123.821991 214.968735,129.147522 214.798965,134.464340 
	C214.751434,135.952972 216.028534,138.753250 213.245850,138.648300 
	C211.158722,138.569595 208.720215,137.353912 208.766129,134.255722 
	C208.825272,130.265152 208.760315,126.272820 208.758804,122.281242 
	C208.756088,115.129494 208.738449,107.977600 208.781265,100.826103 
	C208.789902,99.384338 208.350021,97.698746 209.871719,96.705086 
	C211.215881,95.827362 212.571960,94.176445 214.229416,94.894615 
	C215.523499,95.455345 214.824203,97.287895 214.836578,98.539726 
	C214.898972,104.859268 214.865692,111.179756 214.865967,117.999832 
z"/>
<path fill="#66BD89" opacity="1.000000" stroke="none" 
	d="
M196.248810,121.802612 
	C196.230774,129.559174 196.230774,129.559174 189.811813,125.876106 
	C184.377380,122.757942 184.236526,111.343529 189.613388,108.197426 
	C191.439377,107.128998 193.326981,106.165863 195.663589,104.895103 
	C196.793655,110.646919 195.993713,116.020226 196.248810,121.802612 
z"/>
<path fill="#74C394" opacity="1.000000" stroke="none" 
	d="
M200.435257,130.480042 
	C200.420151,128.612793 200.276306,127.031853 202.534164,127.038773 
	C204.017899,127.043327 204.649323,127.835831 204.583725,129.180283 
	C204.516098,130.566269 205.389435,132.540573 203.724152,133.132339 
	C202.310730,133.634628 200.993790,132.433670 200.435257,130.480042 
z"/>
<path fill="#74C394" opacity="1.000000" stroke="none" 
	d="
M200.603149,102.626144 
	C201.566574,101.281082 202.722290,99.906639 203.889023,100.711502 
	C205.373947,101.735855 204.707169,103.722755 204.419739,105.283691 
	C204.205383,106.447868 203.120819,106.713921 202.083435,106.499359 
	C199.995224,106.067459 200.429184,104.408585 200.603149,102.626144 
z"/>
<path fill="#74C394" opacity="1.000000" stroke="none" 
	d="
M202.170532,114.800095 
	C199.932144,113.694283 199.751358,112.292915 201.430008,110.985703 
	C202.160889,110.416550 203.592728,110.420013 204.104874,111.340317 
	C205.019058,112.983047 204.977280,114.549744 202.170532,114.800095 
z"/>
<path fill="#74C394" opacity="1.000000" stroke="none" 
	d="
M200.857422,119.560791 
	C202.768875,118.780838 204.405151,118.443130 204.528519,120.999626 
	C204.581253,122.092552 204.127243,122.848801 202.896759,122.943390 
	C200.466690,123.130203 200.223953,121.739067 200.857422,119.560791 
z"/>
<path fill="#71C292" opacity="1.000000" stroke="none" 
	d="
M546.236328,108.980438 
	C551.294556,106.779297 556.275208,106.925468 561.241516,106.863708 
	C563.337524,106.837646 564.209412,107.691055 564.193237,109.798637 
	C564.156372,114.595482 562.610474,118.744507 558.330383,121.107384 
	C553.937317,123.532677 549.068542,124.035866 544.543701,121.469498 
	C539.636719,118.686363 540.346008,113.048851 546.236328,108.980438 
z"/>
<path fill="#F0F9F4" opacity="1.000000" stroke="none" 
	d="
M114.661743,107.461288 
	C124.780098,105.780281 134.729828,106.795319 144.655624,106.561646 
	C145.878098,106.532867 146.972397,106.787811 147.055283,108.402740 
	C147.145950,110.169838 146.194595,110.757263 144.628464,110.757195 
	C135.326111,110.756790 126.023743,110.762299 116.721413,110.746948 
	C114.743126,110.743690 114.110939,109.626305 114.661743,107.461288 
z"/>
<path fill="#FDFEFD" opacity="1.000000" stroke="none" 
	d="
M137.938629,122.986710 
	C140.424149,122.992058 142.418808,122.994453 144.413422,123.003754 
	C145.828445,123.010345 147.086578,123.121635 147.019775,125.093445 
	C146.965424,126.697632 146.009781,126.993614 144.733246,126.994164 
	C135.424927,126.998146 126.116615,126.997894 116.808304,126.997246 
	C115.543388,126.997162 114.495483,126.745720 114.419792,125.155540 
	C114.329643,123.261513 115.540840,123.001968 117.002350,123.001190 
	C123.817482,122.997589 130.632614,122.991760 137.938629,122.986710 
z"/>
<path fill="#F7FCF9" opacity="1.000000" stroke="none" 
	d="
M132.991180,118.928612 
	C127.676331,118.927040 122.858437,118.959084 118.041534,118.904587 
	C116.484421,118.886971 114.395027,119.391090 114.439491,116.759964 
	C114.478371,114.459839 116.363045,114.862762 117.762451,114.856232 
	C126.400543,114.815872 135.039047,114.811073 143.677048,114.860146 
	C145.038818,114.867889 146.917328,114.371651 146.991531,116.727150 
	C147.076553,119.425629 144.994766,118.868660 143.455292,118.902031 
	C140.134399,118.974030 136.810928,118.926964 132.991180,118.928612 
z"/>
<path fill="#F0F9F4" opacity="1.000000" stroke="none" 
	d="
M155.024261,106.622162 
	C157.945923,106.867249 157.756104,108.495605 156.865829,110.107895 
	C156.323654,111.089783 154.929733,111.047279 154.221863,110.446480 
	C152.659256,109.120239 152.607285,107.679771 155.024261,106.622162 
z"/>
<path fill="#F0F9F4" opacity="1.000000" stroke="none" 
	d="
M156.425079,118.727234 
	C153.996735,119.125732 152.918320,118.338181 153.366669,116.134369 
	C153.616760,114.905029 154.682922,114.719925 155.648438,114.914070 
	C158.181534,115.423431 157.497101,117.031219 156.425079,118.727234 
z"/>
<path fill="#F0F9F4" opacity="1.000000" stroke="none" 
	d="
M154.256531,123.163086 
	C156.806458,122.710739 157.691666,123.655045 157.258163,125.808426 
	C156.992096,127.130203 155.883331,127.164825 154.953369,126.957016 
	C152.500366,126.408852 152.969467,124.882454 154.256531,123.163086 
z"/>
<path fill="#F7FCF9" opacity="1.000000" stroke="none" 
	d="
M157.812408,82.168556 
	C156.811615,77.181465 158.708603,73.822571 162.950089,72.303078 
	C166.726913,70.950043 170.226562,72.066704 172.503525,75.639893 
	C174.800568,79.244576 174.162811,82.689384 171.324036,85.646706 
	C167.257645,89.882919 161.408081,88.464317 157.812408,82.168556 
z"/>
<path fill="#F7FCF9" opacity="1.000000" stroke="none" 
	d="
M162.879852,39.499981 
	C167.277954,38.370659 170.479980,39.588539 172.659866,43.121399 
	C174.398804,45.939655 174.239044,48.811474 172.399750,51.561901 
	C170.432053,54.504349 167.614212,55.564087 164.197769,55.042606 
	C160.682098,54.505974 158.514847,52.301792 157.737885,48.959579 
	C156.729980,44.623859 158.626480,41.570328 162.879852,39.499981 
z"/>
<path fill="#F7FCF9" opacity="1.000000" stroke="none" 
	d="
M181.255905,71.535019 
	C175.296143,69.670731 172.801361,65.873138 174.155457,61.218796 
	C175.297409,57.293575 179.321823,54.902767 183.497559,55.668850 
	C187.938400,56.483570 190.768463,60.263020 190.023270,64.706566 
	C189.244385,69.350990 186.120041,71.367516 181.255905,71.535019 
z"/>
<path fill="#F7FCF9" opacity="1.000000" stroke="none" 
	d="
M156.850296,64.299698 
	C153.161484,69.750252 148.158371,70.991127 144.136093,67.804642 
	C140.344635,64.801010 139.910995,59.447918 143.292191,55.953999 
	C146.029327,53.125599 149.437729,52.612534 152.857971,54.282074 
	C156.826309,56.219151 157.906128,59.718040 156.850296,64.299698 
z"/>
<path fill="#F0F9F4" opacity="1.000000" stroke="none" 
	d="
M168.931152,65.877396 
	C167.112518,67.814781 165.240906,68.097122 163.345596,66.871300 
	C161.824203,65.887306 161.357269,64.297798 161.742508,62.515369 
	C162.095505,60.882053 163.195084,59.945263 164.756851,59.580441 
	C168.002991,58.822159 169.743576,61.225479 168.931152,65.877396 
z"/>
<path fill="#F7FCF9" opacity="1.000000" stroke="none" 
	d="
M117.507401,76.842911 
	C118.842140,83.141869 115.605354,87.135796 110.746750,85.748116 
	C108.089317,84.989120 106.510178,83.076057 106.234627,80.398285 
	C105.977417,77.898666 107.134567,75.800728 109.391861,74.666786 
	C112.429863,73.140678 115.156754,73.714890 117.507401,76.842911 
z"/>
<path fill="#6CC08E" opacity="1.000000" stroke="none" 
	d="
M169.633240,79.980675 
	C168.726166,83.171417 166.982224,84.521202 164.000656,83.356682 
	C161.969986,82.563568 161.431000,80.897217 161.879196,78.888512 
	C162.247360,77.238449 163.470612,76.301544 165.026642,76.117943 
	C167.568985,75.817955 169.060379,77.181183 169.633240,79.980675 
z"/>
<path fill="#6CC08E" opacity="1.000000" stroke="none" 
	d="
M165.048843,50.953362 
	C162.028229,49.879135 161.053558,47.992180 162.137726,45.392326 
	C162.840195,43.707802 164.439713,43.003300 166.224121,43.307678 
	C167.976868,43.606655 169.378281,44.662792 169.537827,46.526928 
	C169.780441,49.361820 168.169159,50.761688 165.048843,50.953362 
z"/>
<path fill="#6CC08E" opacity="1.000000" stroke="none" 
	d="
M184.966309,66.134232 
	C182.636688,67.652618 180.595917,67.879799 178.895599,65.894142 
	C177.682968,64.477989 177.695602,62.851105 178.753983,61.302757 
	C179.844894,59.706787 181.502472,59.338120 183.156403,59.907558 
	C186.182159,60.949310 186.686569,63.087715 184.966309,66.134232 
z"/>
<path fill="#6CC08E" opacity="1.000000" stroke="none" 
	d="
M147.525436,64.954041 
	C144.942459,63.098873 144.400070,61.040188 146.305466,58.858212 
	C147.665588,57.300659 149.556900,57.279381 151.312988,58.198059 
	C153.018600,59.090324 153.427231,60.735859 152.970871,62.467018 
	C152.275009,65.106712 150.297760,65.566780 147.525436,64.954041 
z"/>
<path fill="#74C394" opacity="1.000000" stroke="none" 
	d="
M113.927162,79.209480 
	C113.988106,81.082954 113.386787,82.124008 111.674088,81.511063 
	C110.704956,81.164215 110.119545,80.245697 110.704407,79.194504 
	C111.523094,77.723068 112.631241,77.671524 113.927162,79.209480 
z"/>
</svg>